<svg class="icon" style="width: 1em;height: 1em;vertical-align: middle;fill: currentColor;overflow: hidden;" viewBox="0 0 1024 1024" version="1.1" xmlns="http://www.w3.org/2000/svg"><path d="M318.747601 170.978093c18.10331 0 32.772404-14.669094 32.772404-32.772404 0-1.803066 1.834788-3.648087 3.637854-3.648087l310.728974 0c3.317559 0 5.824659 2.00568 5.984295 2.859118 3.478218 17.762549 20.653389 29.358655 38.458917 25.870204 17.762549-3.478218 29.348422-20.696368 25.870204-38.458917-6.326079-32.345686-35.898605-55.815213-70.313416-55.815213L355.157859 69.012793c-38.148855 0-69.182662 31.04404-69.182662 69.192895C285.975197 156.310022 300.644291 170.978093 318.747601 170.978093z" fill="" /><path d="M934.540526 780.190135 664.671145 369.970216 664.671145 230.377948c0-18.10331-14.669094-32.772404-32.772404-32.772404s-32.772404 14.669094-32.772404 32.772404l0 149.075247c0 6.40078 2.058892 13.271258 5.579065 18.615986l274.735202 417.60205c13.623275 21.61325 17.815761 41.658795 11.222599 53.618175-6.581905 11.916401-25.720801 19.031449-51.206242 19.031449L184.009897 888.320854c-25.475208 0-44.614104-7.116071-51.196009-19.031449-6.593162-11.95938-2.400676-32.003901 10.870582-53.084009l275.225365-418.337807c3.435239-5.301749 5.429663-12.097526 5.429663-18.413372L424.339498 229.236961c0-18.10331-14.669094-32.772404-32.772404-32.772404s-32.772404 14.669094-32.772404 32.772404l0 140.754744L88.583524 780.723278c-27.331485 43.375903-32.003901 86.070284-13.153578 120.229269 18.828834 34.127262 57.383942 52.91414 108.579951 52.91414l655.447063 0c51.196009 0 89.76135-18.786878 108.590184-52.91414C966.897468 866.793562 962.225051 824.088948 934.540526 780.190135z" fill="" /></svg>