<svg class="icon" style="width: 1em;height: 1em;vertical-align: middle;fill: currentColor;overflow: hidden;" viewBox="0 0 1024 1024" version="1.1" xmlns="http://www.w3.org/2000/svg"><path d="M769.8 809.8H256.2c-21.6 0-39.3-17.6-39.3-39.3V255.9c0-21.6 17.6-39.3 39.3-39.3h513.6c21.6 0 39.3 17.6 39.3 39.3v514.6c0 21.7-17.6 39.3-39.3 39.3zM256.2 225.2c-17 0-30.8 13.8-30.8 30.8v514.6c0 17 13.8 30.8 30.8 30.8h513.6c17 0 30.8-13.8 30.8-30.8V255.9c0-17-13.8-30.8-30.8-30.8H256.2z" fill="" /><path d="M461.9 486H313.7c-12.7 0-23-10.3-23-23V311.9c0-12.7 10.3-23 23-23h148.1c12.7 0 23 10.3 23 23V463c0.1 12.7-10.2 23-22.9 23z" fill="" /></svg>