<svg class="icon" style="width: 1em;height: 1em;vertical-align: middle;fill: currentColor;overflow: hidden;" viewBox="0 0 1024 1024" version="1.1" xmlns="http://www.w3.org/2000/svg"><path d="M502.9 914c-46.7 0-80.7-16.2-101.6-30.6-40.7-28-60.4-67.5-58-93.2-1.2 0.1-2.5 0.2-3.8 0.2-24.4 0-68-19.7-98.7-59.6-32.3-42-70.4-134.2 38.4-280.3l0.1-0.1c82.8-102.3 173.6-88.1 220.3-70.6 68.2 25.6 118.2 84.4 120.2 122.4 27.5 4.3 56.3 19.6 81.5 43.3 27 25.4 47.3 58.3 57.2 92.8 12.6 43.6 19.3 128.4-76.8 206.4 0 0-0.1 0.1-0.2 0.1-56.8 42-112.2 65.1-164.7 68.6-4.8 0.4-9.4 0.6-13.9 0.6z" fill="" /></svg>