<svg class="icon" style="width: 1em;height: 1em;vertical-align: middle;fill: currentColor;overflow: hidden;" viewBox="0 0 1024 1024" version="1.1" xmlns="http://www.w3.org/2000/svg"><path d="M705.496615 183.296l4.844308 0.472615c10.948923 2.284308 19.259077 12.209231 19.101539 24.024616l-0.512 4.923077a24.339692 24.339692 0 0 1-18.668308 18.983384l-4.844308 0.512H316.061538a33.122462 33.122462 0 0 0-33.476923 34.028308v17.486769l0.315077 3.229539c1.575385 7.404308 8.349538 13.312 15.911385 13.312h409.009231l8.428307 0.43323c41.472 4.214154 73.255385 39.227077 73.255385 82.550154v374.508308c0 43.323077-31.783385 78.296615-73.255385 82.510769l-8.428307 0.433231H316.140308c-45.528615 0-81.644308-36.745846-81.644308-82.944V266.24c0-46.198154 36.115692-82.944 81.644308-82.944h389.356307zM282.663385 757.76c0 19.298462 14.493538 34.028308 33.476923 34.028308h391.68l3.50523-0.157539a33.083077 33.083077 0 0 0 29.932308-33.870769V383.212308a33.083077 33.083077 0 0 0-29.932308-33.87077l-3.50523-0.118153H282.663385V757.76z m194.126769-170.771692h70.459077l-35.209846-72.625231-35.249231 72.625231z m54.862769-143.635693c0.315077 0.315077 0.905846 0.905846 0.905846 1.929847l0.275693 0.393846c0.315077 0.315077 0.866462 0.866462 0.866461 1.929846v0.945231l101.297231 208.147692v0.078769l1.378461 4.647385a30.365538 30.365538 0 0 1-0.472615 13.666461c-1.496615 5.513846-4.450462 10.24-8.270769 12.169846l-0.157539 0.07877v-0.07877c-2.520615 0.827077-5.198769 1.772308-7.876923 2.166154l-2.756923 0.236308c-8.349538 0-18.077538-4.883692-21.700923-13.548308l-20.440615-41.472h-117.366154l-20.48 41.55077-0.078769 0.039384a25.718154 25.718154 0 0 1-18.432 13.193846l-3.15077 0.236308a33.398154 33.398154 0 0 1-10.712615-2.363077l-0.118154-0.078769a24.615385 24.615385 0 0 1-10.752-32.925539l101.297231-208.226461a2.67" fill="" /></svg>